<?xml version="1.0" standalone="no"?>
<!DOCTYPE svg PUBLIC "-//W3C//DTD SVG 20010904//EN"
 "http://www.w3.org/TR/2001/REC-SVG-20010904/DTD/svg10.dtd">
<svg version="1.0" xmlns="http://www.w3.org/2000/svg"
 width="310.000000pt" height="163.000000pt" viewBox="0 0 310.000000 163.000000"
 preserveAspectRatio="xMidYMid meet">

<g transform="translate(0.000000,163.000000) scale(0.100000,-0.100000)"
fill="#000000" stroke="none">
<path d="M509 1393 c-127 -123 -174 -54 468 -690 432 -428 553 -543 573 -542
20 0 145 118 573 542 642 636 595 567 468 690 -60 59 -85 77 -107 77 -24 0
-98 -70 -481 -452 l-453 -452 -453 452 c-383 382 -457 452 -481 452 -22 0 -47
-18 -107 -77z"/>
</g>
</svg>
