<?xml version="1.0" standalone="no"?>
<!DOCTYPE svg PUBLIC "-//W3C//DTD SVG 20010904//EN"
 "http://www.w3.org/TR/2001/REC-SVG-20010904/DTD/svg10.dtd">
<svg version="1.0" xmlns="http://www.w3.org/2000/svg"
 width="360.000000pt" height="360.000000pt" viewBox="0 0 360.000000 360.000000"
 preserveAspectRatio="xMidYMid meet">

<g transform="translate(0.000000,360.000000) scale(0.100000,-0.100000)"
fill="#000000" stroke="none">
<path d="M1394 2753 c-14 -46 -48 -110 -78 -147 -73 -90 -85 -160 -41 -247
l26 -50 -53 27 c-89 45 -167 31 -257 -48 -38 -33 -105 -67 -133 -68 -23 0 -22
-7 2 -64 12 -25 25 -82 30 -125 10 -86 36 -150 72 -175 12 -9 45 -23 72 -32
l51 -17 -55 -19 c-95 -32 -124 -74 -147 -211 -7 -49 -23 -108 -34 -129 -11
-22 -19 -41 -17 -42 2 -1 24 -10 51 -20 26 -10 71 -37 100 -60 28 -24 67 -51
86 -61 48 -24 117 -23 169 4 23 12 42 19 42 16 0 -2 -9 -19 -20 -37 -25 -41
-27 -126 -4 -171 9 -18 36 -58 60 -90 24 -32 51 -80 61 -106 l17 -48 51 23
c29 13 86 27 132 33 92 10 166 45 185 86 9 20 14 22 29 14 14 -7 19 -6 19 2 0
7 16 -6 35 -28 41 -49 86 -68 189 -82 42 -6 95 -20 117 -32 23 -11 42 -19 43
-17 2 2 14 28 28 58 14 30 42 75 62 99 75 89 92 158 57 236 -11 26 -21 49 -21
51 0 3 18 -5 40 -16 54 -28 119 -26 180 5 27 13 52 30 55 36 11 17 109 77 139
85 37 9 38 16 15 63 -11 23 -24 78 -30 122 -16 129 -56 188 -146 212 -24 6
-43 14 -43 18 0 4 20 12 45 18 54 14 110 60 124 104 6 18 15 67 21 109 5 43
19 96 30 117 23 46 25 61 8 61 -25 0 -113 48 -148 79 -47 42 -109 71 -151 71
-20 0 -58 -11 -85 -25 -27 -14 -50 -25 -52 -25 -1 0 9 23 24 52 42 83 26 152
-60 257 -24 30 -52 75 -62 100 -9 25 -18 47 -18 48 -1 1 -29 -9 -62 -22 -32
-14 -73 -25 -91 -25 -118 -1 -202 -53 -224 -140 -15 -58 -25 -63 -34 -17 -19
90 -87 137 -222 156 -69 9 -113 22 -165 49 -5 2 -11 -5 -14 -15z m166 -103 c0
-5 -7 -10 -15 -10 -8 0 -15 5 -15 10 0 6 7 10 15 10 8 0 15 -4 15 -10z m-60
-10 c0 -5 -4 -10 -10 -10 -5 0 -10 5 -10 10 0 6 5 10 10 10 6 0 10 -4 10 -10z
m110 0 c0 -5 -4 -10 -10 -10 -5 0 -10 5 -10 10 0 6 5 10 10 10 6 0 10 -4 10
-10z m480 0 c0 -5 -4 -10 -10 -10 -5 0 -10 5 -10 10 0 6 5 10 10 10 6 0 10 -4
10 -10z m50 0 c0 -5 -4 -10 -10 -10 -5 0 -10 5 -10 10 0 6 5 10 10 10 6 0 10
-4 10 -10z m-694 -27 c-10 -10 -19 5 -10 18 6 11 8 11 12 0 2 -7 1 -15 -2 -18z
m594 23 c0 -11 -19 -15 -25 -6 -3 5 1 10 9 10 9 0 16 -2 16 -4z m-386 -27 c-3
-5 -10 -7 -15 -3 -5 3 -7 10 -3 15 3 5 10 7 15 3 5 -3 7 -10 3 -15z m536 12
c0 -6 -4 -13 -10 -16 -5 -3 -10 1 -10 9 0 9 5 16 10 16 6 0 10 -4 10 -9z
m-200 -11 c0 -5 -4 -10 -9 -10 -6 0 -13 5 -16 10 -3 6 1 10 9 10 9 0 16 -4 16
-10z m-580 -20 c0 -5 -4 -10 -10 -10 -5 0 -10 5 -10 10 0 6 5 10 10 10 6 0 10
-4 10 -10z m290 -11 c0 -5 -4 -9 -10 -9 -5 0 -10 7 -10 16 0 8 5 12 10 9 6 -3
10 -10 10 -16z m-78 -15 c31 -16 72 -66 87 -107 14 -35 31 -34 56 6 29 45 57
46 90 3 15 -20 31 -36 36 -36 4 0 15 16 25 35 9 19 33 50 54 69 82 74 189 56
239 -41 15 -29 13 -99 -4 -148 -17 -47 -9 -55 48 -47 50 6 68 -13 57 -62 -4
-21 -3 -44 6 -62 8 -20 13 -23 13 -11 1 23 40 37 103 37 121 0 188 -89 144
-193 -15 -38 -77 -95 -118 -109 -36 -13 -35 -20 7 -52 44 -34 44 -58 0 -93
-19 -15 -35 -33 -35 -39 0 -7 -18 -28 -40 -48 -22 -20 -40 -39 -40 -42 0 -3
12 -20 26 -39 l25 -33 -53 -6 c-215 -22 -290 -14 -293 32 -1 14 3 21 10 18 31
-12 106 -15 167 -9 l67 8 -57 66 c-53 61 -110 109 -130 109 -5 0 -15 -11 -22
-25 -7 -13 -21 -27 -30 -30 -13 -4 -16 -17 -16 -55 1 -41 -4 -54 -27 -77 -22
-23 -36 -28 -75 -28 -39 0 -51 -5 -70 -27 -12 -14 -36 -29 -52 -33 -36 -8 -97
19 -106 47 -5 16 -12 19 -37 15 -36 -5 -85 12 -106 37 -8 9 -14 37 -14 62 0
37 -6 51 -29 74 -15 16 -28 37 -28 47 0 11 -3 14 -8 7 -4 -6 -20 -19 -37 -29
-16 -9 -56 -48 -87 -85 l-57 -67 52 -7 c29 -3 82 -6 118 -6 53 0 66 -3 66 -16
0 -31 -40 -37 -191 -29 -80 4 -146 10 -146 13 0 3 11 20 25 38 l26 33 -41 37
c-22 20 -40 41 -40 48 0 6 -19 27 -42 47 -41 36 -42 37 -25 62 9 14 25 28 36
32 16 5 38 35 29 39 -52 20 -105 58 -125 88 -52 77 -35 162 39 208 40 24 139
27 180 6 34 -18 41 -8 33 47 -9 58 8 72 75 63 49 -7 61 -1 39 21 -6 6 -13 40
-16 76 -5 55 -2 71 18 107 41 74 121 95 201 54z m318 16 c0 -5 -4 -10 -10 -10
-5 0 -10 5 -10 10 0 6 5 10 10 10 6 0 10 -4 10 -10z m290 0 c0 -5 -4 -10 -10
-10 -5 0 -10 5 -10 10 0 6 5 10 10 10 6 0 10 -4 10 -10z m-850 -36 c0 -8 -4
-12 -10 -9 -5 3 -10 10 -10 16 0 5 5 9 10 9 6 0 10 -7 10 -16z m346 -11 c-10
-10 -19 5 -10 18 6 11 8 11 12 0 2 -7 1 -15 -2 -18z m184 7 c0 -5 -4 -10 -10
-10 -5 0 -10 5 -10 10 0 6 5 10 10 10 6 0 10 -4 10 -10z m350 0 c0 -5 -4 -10
-10 -10 -5 0 -10 5 -10 10 0 6 5 10 10 10 6 0 10 -4 10 -10z m-900 -39 c0 -6
-4 -13 -10 -16 -5 -3 -10 1 -10 9 0 9 5 16 10 16 6 0 10 -4 10 -9z m400 -1 c0
-5 -4 -10 -10 -10 -5 0 -10 5 -10 10 0 6 5 10 10 10 6 0 10 -4 10 -10z m120
-11 c0 -5 -4 -9 -10 -9 -5 0 -10 7 -10 16 0 8 5 12 10 9 6 -3 10 -10 10 -16z
m400 1 c0 -5 -4 -10 -10 -10 -5 0 -10 5 -10 10 0 6 5 10 10 10 6 0 10 -4 10
-10z m-929 -53 c-13 -13 -26 -3 -16 12 3 6 11 8 17 5 6 -4 6 -10 -1 -17z m933
-8 c-3 -5 -10 -7 -15 -3 -5 3 -7 10 -3 15 3 5 10 7 15 3 5 -3 7 -10 3 -15z
m-924 -39 c0 -5 -4 -10 -9 -10 -6 0 -13 5 -16 10 -3 6 1 10 9 10 9 0 16 -4 16
-10z m920 -10 c0 -5 -4 -10 -10 -10 -5 0 -10 5 -10 10 0 6 5 10 10 10 6 0 10
-4 10 -10z m-910 -40 c0 -5 -4 -10 -10 -10 -5 0 -10 5 -10 10 0 6 5 10 10 10
6 0 10 -4 10 -10z m900 -10 c0 -5 -4 -10 -10 -10 -5 0 -10 5 -10 10 0 6 5 10
10 10 6 0 10 -4 10 -10z m-1093 -66 c-9 -9 -28 6 -21 18 4 6 10 6 17 -1 6 -6
8 -13 4 -17z m-56 3 c-1 -12 -15 -9 -19 4 -3 6 1 10 8 8 6 -3 11 -8 11 -12z
m109 3 c0 -5 -4 -10 -10 -10 -5 0 -10 5 -10 10 0 6 5 10 10 10 6 0 10 -4 10
-10z m50 -16 c0 -8 -4 -12 -10 -9 -5 3 -10 10 -10 16 0 5 5 9 10 9 6 0 10 -7
10 -16z m1120 0 c0 -8 -4 -12 -10 -9 -5 3 -10 10 -10 16 0 5 5 9 10 9 6 0 10
-7 10 -16z m55 6 c3 -5 -1 -10 -10 -10 -9 0 -13 5 -10 10 3 6 8 10 10 10 2 0
7 -4 10 -10z m-1380 -10 c3 -5 -1 -10 -9 -10 -9 0 -16 5 -16 10 0 6 4 10 9 10
6 0 13 -4 16 -10z m1435 0 c0 -5 -4 -10 -10 -10 -5 0 -10 5 -10 10 0 6 5 10
10 10 6 0 10 -4 10 -10z m-160 -10 c0 -5 -4 -10 -10 -10 -5 0 -10 5 -10 10 0
6 5 10 10 10 6 0 10 -4 10 -10z m210 -10 c0 -5 -4 -10 -10 -10 -5 0 -10 5 -10
10 0 6 5 10 10 10 6 0 10 -4 10 -10z m-1530 -10 c0 -5 -4 -10 -10 -10 -5 0
-10 5 -10 10 0 6 5 10 10 10 6 0 10 -4 10 -10z m1570 -20 c0 -5 -4 -10 -10
-10 -5 0 -10 5 -10 10 0 6 5 10 10 10 6 0 10 -4 10 -10z m-1600 -20 c0 -5 -7
-10 -15 -10 -8 0 -15 5 -15 10 0 6 7 10 15 10 8 0 15 -4 15 -10z m1640 -20 c0
-5 -7 -10 -15 -10 -8 0 -15 5 -15 10 0 6 7 10 15 10 8 0 15 -4 15 -10z m-1660
-30 c0 -5 -7 -10 -15 -10 -8 0 -15 5 -15 10 0 6 7 10 15 10 8 0 15 -4 15 -10z
m1670 -20 c0 -5 -4 -10 -10 -10 -5 0 -10 5 -10 10 0 6 5 10 10 10 6 0 10 -4
10 -10z m-1680 -35 c0 -8 -4 -15 -10 -15 -5 0 -10 7 -10 15 0 8 5 15 10 15 6
0 10 -7 10 -15z m1690 -15 c0 -5 -4 -10 -10 -10 -5 0 -10 5 -10 10 0 6 5 10
10 10 6 0 10 -4 10 -10z m-1680 -40 c0 -5 -4 -10 -10 -10 -5 0 -10 5 -10 10 0
6 5 10 10 10 6 0 10 -4 10 -10z m1666 -27 c-10 -10 -19 5 -10 18 6 11 8 11 12
0 2 -7 1 -15 -2 -18z m-1646 -18 c0 -8 -4 -15 -10 -15 -5 0 -10 7 -10 15 0 8
5 15 10 15 6 0 10 -7 10 -15z m1630 -14 c0 -6 -4 -13 -10 -16 -5 -3 -10 1 -10
9 0 9 5 16 10 16 6 0 10 -4 10 -9z m-1600 -31 c0 -5 -4 -10 -10 -10 -5 0 -10
5 -10 10 0 6 5 10 10 10 6 0 10 -4 10 -10z m1570 -14 c0 -11 -19 -15 -25 -6
-3 5 1 10 9 10 9 0 16 -2 16 -4z m-1530 -196 c0 -5 -4 -10 -10 -10 -5 0 -10 5
-10 10 0 6 5 10 10 10 6 0 10 -4 10 -10z m1480 -20 c0 -5 -2 -10 -4 -10 -3 0
-8 5 -11 10 -3 6 -1 10 4 10 6 0 11 -4 11 -10z m-1520 -9 c0 -6 -4 -13 -10
-16 -5 -3 -10 1 -10 9 0 9 5 16 10 16 6 0 10 -4 10 -9z m85 -28 c-1 -10 -11
-34 -23 -53 -54 -87 -4 -170 103 -170 30 0 52 -19 38 -34 -13 -12 -115 -5
-144 9 -58 31 -87 120 -58 178 13 25 70 87 79 87 4 0 6 -8 5 -17z m1443 -48
c47 -59 35 -145 -26 -191 -28 -22 -50 -29 -98 -32 -65 -4 -107 9 -98 32 4 10
25 13 75 12 68 -1 72 0 101 33 25 28 29 39 24 70 -3 19 -15 48 -26 63 -22 30
-26 43 -10 33 16 -10 12 7 -7 29 -16 18 -15 18 14 -2 18 -13 41 -34 51 -47z
m32 55 c0 -5 -4 -10 -10 -10 -5 0 -10 5 -10 10 0 6 5 10 10 10 6 0 10 -4 10
-10z m-1596 -31 c-3 -5 -10 -7 -15 -3 -5 3 -7 10 -3 15 3 5 10 7 15 3 5 -3 7
-10 3 -15z m1626 -15 c0 -8 -4 -12 -10 -9 -5 3 -10 10 -10 16 0 5 5 9 10 9 6
0 10 -7 10 -16z m-1646 -35 c-3 -5 -10 -7 -15 -3 -5 3 -7 10 -3 15 3 5 10 7
15 3 5 -3 7 -10 3 -15z m1671 -9 c3 -5 -1 -10 -9 -10 -9 0 -16 5 -16 10 0 6 4
10 9 10 6 0 13 -4 16 -10z m-1689 -47 c-10 -10 -19 5 -10 18 6 11 8 11 12 0 2
-7 1 -15 -2 -18z m609 -4 c-3 -5 1 -6 9 -3 13 5 16 -4 17 -52 1 -33 4 -83 7
-111 l7 -53 78 66 c42 36 77 60 77 53 0 -8 4 -8 15 1 24 20 18 -5 -10 -38 -23
-28 -208 -182 -217 -182 -3 0 -6 30 -6 68 -1 37 -5 94 -8 127 -6 64 10 150 27
140 5 -4 7 -11 4 -16z m508 -27 c6 -29 -10 -229 -21 -275 l-7 -28 -102 91
c-57 50 -110 105 -119 123 -16 30 -16 31 0 18 15 -12 19 -12 26 -1 6 10 26 -2
79 -50 39 -35 72 -68 72 -74 3 -23 17 102 18 161 1 54 3 61 18 56 11 -4 14 -3
9 5 -4 8 -2 10 7 6 8 -3 17 -17 20 -32z m581 17 c-3 -5 -10 -7 -15 -3 -5 3 -7
10 -3 15 3 5 10 7 15 3 5 -3 7 -10 3 -15z m-1684 -29 c0 -5 -4 -10 -10 -10 -5
0 -10 5 -10 10 0 6 5 10 10 10 6 0 10 -4 10 -10z m1680 -20 c0 -5 -4 -10 -10
-10 -5 0 -10 5 -10 10 0 6 5 10 10 10 6 0 10 -4 10 -10z m-344 -81 c-1 -36 -7
-73 -13 -80 -17 -21 -204 -24 -196 -3 3 8 -1 15 -8 15 -23 3 83 21 128 22 40
1 41 3 36 29 -7 37 13 84 36 84 15 0 17 -9 17 -67z m-1316 51 c0 -5 -4 -10
-10 -10 -5 0 -10 5 -10 10 0 6 5 10 10 10 6 0 10 -4 10 -10z m1207 -23 c-18
-28 -40 -32 -61 -12 -22 22 -12 34 24 29 18 -3 30 -1 30 6 0 6 5 8 11 5 7 -5
6 -14 -4 -28z m-849 -35 c-4 -31 -3 -32 31 -31 20 0 60 -3 89 -7 47 -6 53 -9
50 -28 -3 -18 -9 -21 -48 -18 -25 1 -70 2 -102 2 -71 1 -85 14 -70 71 6 23 8
47 5 55 -4 10 0 11 22 1 22 -10 26 -17 23 -45z m104 43 c22 7 22 6 5 -11 -19
-20 -46 -12 -56 17 -4 12 -2 12 12 1 10 -8 25 -11 39 -7z m1178 -5 c0 -5 -4
-10 -10 -10 -5 0 -10 5 -10 10 0 6 5 10 10 10 6 0 10 -4 10 -10z m-1610 -20
c0 -5 -4 -10 -10 -10 -5 0 -10 5 -10 10 0 6 5 10 10 10 6 0 10 -4 10 -10z
m1570 -20 c0 -5 -4 -10 -10 -10 -5 0 -10 5 -10 10 0 6 5 10 10 10 6 0 10 -4
10 -10z m-1530 -10 c0 -5 -5 -10 -11 -10 -5 0 -7 5 -4 10 3 6 8 10 11 10 2 0
4 -4 4 -10z m1490 -20 c0 -5 -4 -10 -10 -10 -5 0 -10 5 -10 10 0 6 5 10 10 10
6 0 10 -4 10 -10z m-710 -65 c0 -19 -36 -46 -53 -39 -8 3 -18 12 -21 20 -3 9
-1 12 4 9 12 -7 40 18 40 36 0 9 4 8 15 -1 8 -7 15 -18 15 -25z m85 -65 c0 -8
-16 -25 -35 -38 -19 -12 -39 -31 -44 -41 -4 -10 -19 -24 -32 -32 -22 -11 -27
-9 -72 38 -37 39 -45 52 -35 61 16 16 56 0 77 -30 l16 -22 16 22 c16 23 82 61
99 58 6 -2 10 -9 10 -16z m-590 -50 c3 -5 1 -10 -4 -10 -6 0 -11 5 -11 10 0 6
2 10 4 10 3 0 8 -4 11 -10z m88 -4 c3 3 12 -9 20 -27 29 -70 52 -77 176 -55
33 5 33 5 15 -15 -69 -76 -182 -60 -230 33 -19 36 -19 85 -1 69 8 -6 17 -8 20
-5z m777 -32 c0 -44 -49 -100 -99 -114 -46 -12 -105 3 -137 35 -23 23 -34 52
-15 41 5 -4 11 -1 13 6 3 7 14 4 34 -11 16 -12 46 -24 65 -27 30 -5 40 -2 67
26 18 17 32 39 32 49 0 22 6 28 25 28 10 0 15 -11 15 -33z m-850 -18 c0 -11
-19 -15 -25 -6 -3 5 1 10 9 10 9 0 16 -2 16 -4z m906 -23 c-10 -10 -19 5 -10
18 6 11 8 11 12 0 2 -7 1 -15 -2 -18z m-896 -33 c0 -5 -4 -10 -10 -10 -5 0
-10 5 -10 10 0 6 5 10 10 10 6 0 10 -4 10 -10z m881 -13 c-13 -13 -26 -3 -16
12 3 6 11 8 17 5 6 -4 6 -10 -1 -17z m-851 -27 c0 -5 -4 -10 -10 -10 -5 0 -10
5 -10 10 0 6 5 10 10 10 6 0 10 -4 10 -10z m820 -10 c0 -5 -4 -10 -10 -10 -5
0 -10 5 -10 10 0 6 5 10 10 10 6 0 10 -4 10 -10z m-780 -30 c0 -5 -2 -10 -4
-10 -3 0 -8 5 -11 10 -3 6 -1 10 4 10 6 0 11 -4 11 -10z m740 0 c0 -5 -4 -10
-10 -10 -5 0 -10 5 -10 10 0 6 5 10 10 10 6 0 10 -4 10 -10z"/>
<path d="M1489 2528 c-40 -33 -51 -109 -25 -172 10 -25 23 -36 44 -41 23 -5
29 -10 25 -26 -4 -15 -14 -19 -45 -19 -22 0 -48 -5 -59 -11 -15 -7 -29 -7 -51
0 -29 10 -30 10 -23 -16 3 -14 1 -47 -6 -73 -8 -31 -9 -56 -2 -75 9 -28 9 -28
103 -29 l95 -1 2 130 c1 72 6 150 10 174 l8 45 38 -34 c21 -18 39 -31 40 -29
1 2 10 14 20 26 18 21 18 23 -1 65 -11 24 -31 54 -45 67 -30 28 -103 38 -128
19z m-10 -340 c5 -13 7 -26 5 -29 -2 -4 3 -12 11 -19 16 -13 21 -50 7 -50 -5
0 -17 9 -27 20 -10 11 -23 19 -29 17 -35 -13 -62 43 -34 71 20 20 58 14 67
-10z"/>
<path d="M2019 2517 c-19 -12 -44 -42 -56 -65 l-22 -43 21 -35 20 -34 29 20
c15 12 31 25 34 30 15 24 25 6 25 -41 0 -46 2 -50 20 -45 11 3 29 8 39 11 36
11 54 115 29 170 -13 28 -55 55 -86 55 -10 0 -34 -10 -53 -23z"/>
<path d="M1773 2415 c-17 -16 -45 -40 -62 -53 -17 -13 -31 -31 -30 -40 1 -9
25 -39 55 -66 l54 -49 0 36 c0 21 -4 37 -9 37 -18 0 -21 33 -6 57 30 46 92 10
68 -39 -6 -13 -14 -39 -16 -58 -3 -19 -9 -44 -12 -55 -5 -11 3 -6 17 12 14 18
46 49 71 70 l46 37 -21 29 c-11 15 -37 39 -57 51 -20 13 -44 32 -52 43 -13 18
-15 18 -46 -12z"/>
<path d="M1601 2195 c-1 -57 3 -113 8 -124 8 -13 24 -20 57 -23 40 -3 48 0 57
19 5 12 18 25 29 28 10 4 18 12 18 19 0 23 -44 78 -106 133 l-62 54 -1 -106z"/>
<path d="M1953 2248 c-34 -29 -72 -72 -84 -94 -21 -39 -22 -43 -6 -59 10 -9
21 -24 26 -33 7 -14 21 -17 63 -16 52 2 53 3 64 41 7 23 9 72 5 126 l-6 87
-62 -52z"/>
<path d="M2098 2263 c-14 -3 -17 -20 -20 -102 l-3 -97 95 1 95 0 -1 50 c-1 28
-3 59 -4 70 -2 11 -1 31 3 45 6 24 4 25 -41 25 -26 0 -60 3 -77 6 -16 4 -38 5
-47 2z m103 -74 c18 -18 19 -23 6 -42 -8 -12 -25 -24 -38 -25 -13 -2 -34 -13
-46 -25 -32 -28 -41 -13 -15 23 12 16 22 35 22 41 0 15 29 49 42 49 4 0 17 -9
29 -21z"/>
<path d="M1113 2150 c-57 -34 -53 -110 9 -166 37 -34 82 -54 99 -43 33 21 33
9 1 -63 -12 -26 -29 -49 -41 -53 -28 -9 -26 -17 9 -43 17 -13 30 -29 30 -36 0
-12 63 -76 75 -76 2 0 27 25 56 55 28 30 60 57 70 60 26 9 24 16 -12 41 -32
23 -199 212 -199 226 0 4 21 8 46 8 43 0 46 2 40 23 -3 12 -6 32 -6 43 0 17
-9 24 -44 33 -64 16 -96 14 -133 -9z m182 -336 c25 -24 25 -28 11 -43 -28 -28
-68 14 -52 55 7 19 11 18 41 -12z"/>
<path d="M2354 2149 c-27 -8 -33 -15 -36 -47 -3 -20 -4 -39 -2 -41 2 -2 23 -6
49 -8 25 -3 45 -8 45 -10 0 -12 -168 -188 -202 -213 l-38 -28 40 -27 c22 -15
40 -30 40 -34 1 -3 16 -23 34 -44 l34 -38 36 31 c20 18 36 38 36 45 0 8 14 24
31 36 l32 22 -27 20 c-35 25 -62 87 -44 99 10 6 10 10 -2 18 -11 7 -6 8 17 4
36 -7 89 20 123 63 22 28 26 82 10 114 -23 43 -101 60 -176 38z m-6 -321 c17
-17 15 -38 -5 -60 -21 -24 -27 -23 -59 7 -17 15 -21 25 -13 25 8 0 20 9 27 20
14 23 32 26 50 8z"/>
<path d="M1762 2048 c-16 -16 -15 -48 4 -93 10 -25 20 -35 30 -31 7 3 14 1 14
-4 0 -6 4 -10 9 -10 9 0 41 77 41 101 0 38 -70 65 -98 37z"/>
<path d="M1320 2014 c0 -14 116 -138 145 -155 37 -23 45 -24 45 -4 0 8 12 23
28 33 23 15 27 24 27 64 0 44 -2 49 -29 58 -31 11 -216 14 -216 4z"/>
<path d="M2075 2009 c-28 -8 -30 -11 -29 -56 1 -41 6 -54 37 -86 l37 -39 35
22 c19 12 62 52 95 88 l60 67 -62 6 c-88 9 -138 9 -173 -2z"/>
<path d="M1616 1984 c-21 -20 -20 -47 2 -66 34 -31 132 -72 132 -55 0 17 -45
115 -58 125 -22 17 -57 15 -76 -4z"/>
<path d="M1908 1983 c-18 -20 -48 -89 -48 -109 0 -20 20 -17 84 11 54 24 62
34 56 75 -4 38 -65 53 -92 23z"/>
<path d="M1778 1851 c-7 -10 -23 -21 -36 -25 -21 -7 -21 -9 -7 -29 8 -12 15
-34 15 -49 0 -25 2 -27 25 -18 16 6 34 6 50 0 23 -9 25 -7 25 19 0 16 7 34 15
41 22 18 19 29 -10 36 -14 3 -30 15 -36 25 -12 24 -24 24 -41 0z"/>
<path d="M1562 1844 c-30 -21 -29 -59 3 -80 22 -15 32 -15 67 -5 33 10 42 10
49 0 10 -17 4 -26 -34 -45 -18 -9 -35 -22 -39 -28 -15 -23 -8 -56 17 -72 29
-19 60 -11 81 22 9 13 25 24 35 24 21 0 22 -4 10 -35 -12 -29 7 -74 34 -81 29
-7 65 11 66 34 2 24 2 24 -5 58 -6 27 -4 31 15 29 12 -1 28 -13 35 -28 25 -47
89 -47 100 0 9 35 -4 54 -57 80 -58 29 -59 28 -59 -8 0 -29 -2 -31 -27 -23
-36 10 -71 10 -105 1 -27 -7 -28 -6 -28 30 0 49 -41 110 -86 129 -42 18 -45
17 -72 -2z"/>
<path d="M1949 1838 c-14 -6 -31 -19 -38 -30 -10 -17 -7 -21 31 -38 75 -34
118 -23 118 30 0 14 -5 31 -12 38 -14 14 -63 14 -99 0z"/>
<path d="M1202 2420 c0 -14 2 -19 5 -12 2 6 2 18 0 25 -3 6 -5 1 -5 -13z"/>
<path d="M790 2185 c0 -6 4 -15 10 -21 5 -5 16 -27 25 -49 12 -31 14 -33 9
-10 -6 30 -44 99 -44 80z"/>
<path d="M843 2020 c0 -25 2 -35 4 -22 2 12 2 32 0 45 -2 12 -4 2 -4 -23z"/>
<path d="M851 1954 c0 -11 3 -14 6 -6 3 7 2 16 -1 19 -3 4 -6 -2 -5 -13z"/>
<path d="M860 1922 c0 -22 27 -66 59 -96 17 -17 31 -26 31 -22 0 5 -11 17 -24
27 -13 10 -33 38 -45 61 -11 24 -21 37 -21 30z"/>
<path d="M782 1386 c2 -13 24 -28 68 -45 36 -15 91 -48 122 -73 55 -45 136
-79 182 -77 12 0 -1 6 -29 13 -61 15 -104 37 -148 75 -40 35 -123 81 -148 81
-10 0 -25 10 -34 23 -14 19 -16 20 -13 3z"/>
<path d="M2755 1350 c-13 -5 -14 -9 -5 -9 8 0 24 4 35 9 13 5 14 9 5 9 -8 0
-24 -4 -35 -9z"/>
<path d="M1185 1200 c3 -5 8 -10 11 -10 2 0 4 5 4 10 0 6 -5 10 -11 10 -5 0
-7 -4 -4 -10z"/>
<path d="M2416 1187 c9 -5 32 -4 52 1 37 9 36 9 -15 8 -33 -1 -46 -4 -37 -9z"/>
<path d="M1192 1125 c0 -16 2 -22 5 -12 2 9 2 23 0 30 -3 6 -5 -1 -5 -18z"/>
<path d="M1200 1080 c0 -17 36 -74 84 -135 16 -20 39 -64 51 -98 17 -52 25
-62 45 -64 l25 -3 -23 10 c-12 5 -24 15 -26 22 -19 65 -44 114 -83 164 -25 33
-52 73 -59 89 -7 17 -13 23 -14 15z"/>
<path d="M1799 932 c26 -50 103 -86 215 -101 44 -6 100 -22 128 -36 27 -14 55
-25 61 -25 7 0 -16 14 -51 31 -41 21 -88 34 -140 40 -88 11 -151 38 -186 80
-28 32 -42 38 -27 11z"/>
<path d="M1665 860 c-16 -7 -17 -9 -3 -9 9 -1 20 4 23 9 7 11 7 11 -20 0z"/>
<path d="M1588 843 c12 -2 30 -2 40 0 9 3 -1 5 -23 4 -22 0 -30 -2 -17 -4z"/>
<path d="M1523 833 c9 -2 23 -2 30 0 6 3 -1 5 -18 5 -16 0 -22 -2 -12 -5z"/>
</g>
</svg>
